<svg width="421" height="421" viewBox="0 0 421 421" fill="none" xmlns="http://www.w3.org/2000/svg">
<path d="M210.6 0.602005C326.466 0.602005 420.6 94.7355 420.6 210.602C420.6 326.468 326.466 420.602 210.6 420.602C94.7335 420.602 0.600006 326.468 0.600006 210.602C0.600006 94.7355 94.7335 0.602005 210.6 0.602005V0.602005ZM220.145 20.8869V110.376H287.707C283.678 96.7094 278.858 84.1179 273.388 73.0886C258.636 43.3358 239.896 25.3247 220.144 20.8835L220.145 20.8869ZM201.055 20.8869C181.303 25.3281 162.563 43.3392 147.808 73.0886C142.338 84.1179 137.518 96.7094 133.489 110.376H201.051V20.8869H201.055ZM265.785 27.8983C275.103 38.0054 283.356 50.3965 290.394 64.5894C297.162 78.2394 302.928 93.6664 307.546 110.379H373.171C348.948 71.1417 310.889 41.469 265.785 27.9025V27.8983ZM155.415 27.8983C110.311 41.4681 72.2523 71.1375 48.029 110.375H113.654C118.272 93.6664 124.038 78.2352 130.806 64.5852C137.844 50.3965 146.1 38.0019 155.415 27.894V27.8983ZM383.458 129.472H312.164C316.868 151.664 319.651 175.808 320.217 201.063H401.202C399.951 175.525 393.752 151.392 383.455 129.472H383.458ZM292.631 129.472H220.145V201.063H301.13C300.524 175.568 297.535 151.355 292.627 129.472H292.631ZM201.055 129.472H128.568C123.661 151.355 120.671 175.568 120.065 201.063H201.051V129.472H201.055ZM109.026 129.472H37.7318C27.4347 151.392 21.2361 175.525 19.9841 201.063H100.97C101.539 175.808 104.319 151.661 109.023 129.472H109.026ZM401.202 220.154H320.217C319.654 245.449 316.874 269.549 312.163 291.745H383.458C393.722 269.855 399.957 245.642 401.205 220.154H401.202ZM301.12 220.154H220.134V291.745H292.621C297.528 269.839 300.524 245.675 301.124 220.154H301.12ZM201.037 220.154H120.052C120.651 245.675 123.644 269.839 128.555 291.745H201.041V220.154H201.037ZM100.955 220.154H19.9696C21.218 245.642 27.4536 269.855 37.7173 291.745H109.012C104.298 269.549 101.518 245.449 100.958 220.154H100.955ZM373.154 310.836H307.529C302.911 327.522 297.145 342.826 290.377 356.476C283.339 370.668 275.086 383.333 265.768 393.463C310.872 379.893 348.931 350.074 373.154 310.836ZM287.697 310.836H220.134V400.478C239.887 396.037 258.626 377.876 273.382 348.126C278.872 337.06 283.662 324.559 287.701 310.839L287.697 310.836ZM201.037 310.836H133.475C137.514 324.556 142.304 337.057 147.794 348.123C162.549 377.872 181.289 396.033 201.042 400.474V310.832L201.037 310.836ZM113.637 310.836H48.0119C72.2352 350.074 110.294 379.896 155.398 393.463C146.08 383.328 137.827 370.664 130.789 356.476C124.021 342.826 118.255 327.522 113.637 310.836Z" fill="black"/>
</svg>
